<?xml version="1.0" encoding="UTF-8" standalone="no"?>
<!DOCTYPE svg PUBLIC "-//W3C//DTD SVG 1.1//EN"
"http://www.w3.org/Graphics/SVG/1.1/DTD/svg11.dtd">


<!-- Page 1 -->
<svg x="0" y="0" width="324" height="103" viewBox="0 0 324 103" version="1.1" xmlns="http://www.w3.org/2000/svg" xmlns:xlink="http://www.w3.org/1999/xlink"
style="display: block;margin-left: auto;margin-right: auto;">
<defs>

<style type="text/css"><![CDATA[

.g1_1{
fill: #231F20;
}


]]></style>

</defs>
<path d="M0,0
L0,103
L324,103
L324,0 Z " 
fill="#FFFFFF" stroke="none" />
<path d="M90.7,82l10.5,0l0,-0.6l-10.5,0l0,0.6Z" class="g1_1" />
<path d="M90.7,93.4l10.5,0l0,-0.6l-10.5,0l0,0.6Z" class="g1_1" />
<path d="M90.5,13.3l10.5,0l0,-0.6l-10.5,0l0,0.6Z" class="g1_1" />
<path d="M16.3,40.7L28.5,27.5L17,27.5l0,-6.7l22.1,0l0,5.9L26.8,40.3l12.9,0l0,6.7L16.3,47Z" class="g1_1" />
<path d="M122.7,29.6l2.1,0l0,6.6c0.2,-0.3,0.4,-0.7,0.7,-0.9c0.3,-0.3,0.6,-0.5,1,-0.7c0.4,-0.2,0.7,-0.3,1.1,-0.4c0.4,-0.1,0.8,-0.1,1.2,-0.1c0.8,0,1.5,0.1,2.1,0.3c0.5,0.3,1,0.6,1.3,1c0.4,0.4,0.6,0.9,0.7,1.4c0.2,0.6,0.2,1.2,0.2,1.9l0,8.3l-2,0l0,-8.5c0,-0.8,-0.3,-1.4,-0.7,-1.9c-0.5,-0.4,-1.1,-0.7,-1.9,-0.7c-0.6,0,-1.2,0.1,-1.7,0.3c-0.4,0.2,-0.8,0.5,-1.1,0.9c-0.3,0.3,-0.6,0.7,-0.7,1.2c-0.2,0.5,-0.2,1,-0.2,1.6l0,7.1l-2.1,0Z" class="g1_1" />
<path d="M137.8,40.8c0,0.6,0.1,1.2,0.2,1.7c0.2,0.6,0.4,1.1,0.7,1.5c0.3,0.5,0.8,0.8,1.3,1.1c0.4,0.3,1,0.4,1.7,0.4c0.7,0,1.3,-0.2,1.8,-0.4c0.5,-0.3,0.9,-0.7,1.2,-1.1c0.3,-0.5,0.5,-1,0.7,-1.5c0.1,-0.6,0.2,-1.2,0.2,-1.8c0,-0.6,-0.1,-1.2,-0.3,-1.8c-0.1,-0.6,-0.3,-1.1,-0.7,-1.5c-0.3,-0.4,-0.7,-0.8,-1.2,-1.1c-0.5,-0.2,-1.1,-0.4,-1.8,-0.4c-0.7,0,-1.3,0.2,-1.8,0.4c-0.5,0.3,-0.9,0.7,-1.2,1.1c-0.3,0.5,-0.5,1,-0.6,1.6c-0.1,0.6,-0.2,1.2,-0.2,1.8m9.8,6.2l-2.1,0l0,-1.7l-0.1,0c-0.3,0.7,-0.8,1.2,-1.6,1.5c-0.7,0.4,-1.5,0.5,-2.4,0.5c-1,0,-1.8,-0.2,-2.5,-0.5c-0.8,-0.4,-1.4,-0.9,-1.9,-1.5c-0.4,-0.6,-0.8,-1.3,-1,-2.1c-0.3,-0.8,-0.4,-1.6,-0.4,-2.5c0,-0.9,0.1,-1.8,0.3,-2.6c0.3,-0.7,0.6,-1.4,1.1,-2.1c0.5,-0.6,1.1,-1,1.8,-1.4c0.8,-0.3,1.6,-0.5,2.6,-0.5c0.3,0,0.6,0,1,0.1c0.4,0.1,0.8,0.2,1.1,0.3c0.4,0.2,0.8,0.4,1.1,0.6c0.3,0.3,0.6,0.6,0.8,1l0.1,0l0,-6.5l2.1,0Z" class="g1_1" />
<path d="M150.9,29.6l2.1,0l0,10.3l5.7,-5.5l2.8,0l-5,4.6l5.4,8l-2.7,0l-4.3,-6.6L153,42.2l0,4.8l-2.1,0Z" class="g1_1" />
<path d="M101,59.2l-10.5,0l0,-0.5l10.5,0l0,0.5Z" class="g1_1" />
<path d="M91.3,73l4.6,-5.8l-4.3,0l0,-0.8l5.4,0l0,0.8L92.4,73l4.7,0l0,0.8l-5.8,0Z" class="g1_1" />
<path d="M102.7,73.8l-0.9,0l0,-0.8c-0.2,0.3,-0.4,0.5,-0.7,0.7c-0.3,0.2,-0.6,0.2,-1,0.2c-0.4,0,-0.7,0,-0.9,-0.1C99,73.7,98.8,73.6,98.6,73.4C98.5,73.2,98.4,73,98.3,72.8c0,-0.3,-0.1,-0.5,-0.1,-0.8l0,-3.5l0.9,0l0,3.6c0,0.3,0.1,0.6,0.3,0.8c0.2,0.2,0.5,0.3,0.8,0.3c0.3,0,0.5,-0.1,0.7,-0.2c0.2,0,0.4,-0.2,0.5,-0.3c0.1,-0.2,0.2,-0.3,0.3,-0.6c0,-0.2,0.1,-0.4,0.1,-0.6l0,-3l0.9,0Z" class="g1_1" />
<path d="M104.2,68.5l0.8,0l0,1.1c0.2,-0.4,0.5,-0.8,0.8,-1c0.3,-0.2,0.7,-0.3,1.2,-0.3l0,1c-0.4,0,-0.7,0,-0.9,0.1c-0.3,0.1,-0.5,0.2,-0.6,0.4c-0.2,0.2,-0.3,0.4,-0.4,0.7c0,0.3,-0.1,0.6,-0.1,0.9l0,2.4l-0.8,0Z" class="g1_1" />
<path d="M107.9,68.5l0.9,0l0,5.3l-0.9,0l0,-5.3Zm0.9,-1l-0.9,0l0,-1.1l0.9,0l0,1.1Z" class="g1_1" />
<path d="M114,70.2c-0.1,-0.4,-0.2,-0.6,-0.5,-0.8c-0.2,-0.2,-0.5,-0.3,-0.9,-0.3c-0.3,0,-0.5,0.1,-0.7,0.2c-0.3,0.1,-0.4,0.3,-0.6,0.5c-0.1,0.1,-0.2,0.4,-0.2,0.6C111,70.7,111,70.9,111,71.2c0,0.2,0,0.5,0.1,0.7c0,0.3,0.1,0.5,0.2,0.7c0.2,0.1,0.3,0.3,0.5,0.4c0.2,0.1,0.5,0.2,0.7,0.2c0.5,0,0.8,-0.2,1.1,-0.4c0.2,-0.2,0.4,-0.5,0.4,-0.9l0.9,0c-0.1,0.6,-0.3,1.1,-0.7,1.5c-0.4,0.3,-1,0.5,-1.6,0.5c-0.4,0,-0.8,0,-1.1,-0.2c-0.3,-0.1,-0.6,-0.3,-0.8,-0.5c-0.2,-0.3,-0.4,-0.6,-0.5,-0.9c-0.1,-0.3,-0.1,-0.7,-0.1,-1.1c0,-0.4,0,-0.8,0.1,-1.1c0.1,-0.4,0.3,-0.7,0.5,-0.9c0.2,-0.3,0.5,-0.5,0.8,-0.6c0.3,-0.2,0.7,-0.3,1.1,-0.3c0.3,0,0.6,0.1,0.8,0.1c0.3,0.1,0.5,0.2,0.7,0.4c0.2,0.1,0.4,0.3,0.5,0.6c0.2,0.2,0.3,0.5,0.3,0.8Z" class="g1_1" />
<path d="M116.1,66.4l0.9,0l0,2.8c0.1,-0.1,0.2,-0.3,0.3,-0.4c0.1,-0.1,0.3,-0.2,0.4,-0.3c0.2,0,0.3,-0.1,0.5,-0.1c0.2,0,0.3,-0.1,0.5,-0.1c0.3,0,0.6,0.1,0.9,0.2c0.2,0.1,0.4,0.2,0.5,0.4c0.2,0.2,0.3,0.4,0.3,0.6c0.1,0.2,0.1,0.5,0.1,0.8l0,3.5l-0.8,0l0,-3.6c0,-0.3,-0.1,-0.6,-0.3,-0.8c-0.2,-0.2,-0.5,-0.3,-0.8,-0.3c-0.3,0,-0.5,0.1,-0.7,0.1c-0.2,0.1,-0.4,0.2,-0.5,0.4c-0.2,0.1,-0.3,0.3,-0.3,0.5C117,70.3,117,70.5,117,70.8l0,3l-0.9,0Z" class="g1_1" />
<path d="M131.2,71.1c0,1,-0.3,1.7,-0.8,2.2c-0.5,0.4,-1.2,0.7,-2.1,0.7c-0.5,0,-0.9,-0.1,-1.3,-0.2c-0.4,-0.1,-0.7,-0.3,-0.9,-0.5c-0.3,-0.2,-0.5,-0.5,-0.6,-0.9c-0.2,-0.3,-0.2,-0.8,-0.2,-1.3l0,-4.7l0.9,0l0,4.7c0,0.7,0.2,1.2,0.6,1.5c0.3,0.4,0.8,0.6,1.5,0.6c0.6,0,1.1,-0.2,1.4,-0.6c0.3,-0.3,0.5,-0.8,0.5,-1.5l0,-4.7l1,0Z" class="g1_1" />
<path d="M132.8,68.5l0.9,0l0,0.8c0.2,-0.3,0.4,-0.6,0.7,-0.7c0.3,-0.2,0.6,-0.3,1,-0.3c0.4,0,0.7,0.1,0.9,0.2c0.2,0.1,0.4,0.2,0.6,0.4c0.1,0.2,0.2,0.4,0.3,0.6c0,0.2,0.1,0.5,0.1,0.8l0,3.5l-0.9,0l0,-3.6c0,-0.3,-0.1,-0.6,-0.3,-0.8c-0.2,-0.2,-0.5,-0.3,-0.8,-0.3c-0.3,0,-0.5,0.1,-0.7,0.1c-0.2,0.1,-0.4,0.2,-0.5,0.4c-0.1,0.1,-0.2,0.3,-0.3,0.5c-0.1,0.2,-0.1,0.4,-0.1,0.7l0,3l-0.9,0Z" class="g1_1" />
<path d="M138.8,68.5l0.9,0l0,5.3l-0.9,0l0,-5.3Zm0.9,-1l-0.9,0l0,-1.1l0.9,0l0,1.1Z" class="g1_1" />
<path d="M143.7,73.8l-0.9,0l-2,-5.3l1,0l1.5,4.4l1.4,-4.4l1,0Z" class="g1_1" />
<path d="M150.4,70.6c0,-0.2,-0.1,-0.4,-0.2,-0.6c0,-0.2,-0.1,-0.3,-0.3,-0.4c-0.1,-0.2,-0.3,-0.3,-0.5,-0.4c-0.1,0,-0.3,-0.1,-0.6,-0.1c-0.2,0,-0.4,0.1,-0.6,0.1c-0.2,0.1,-0.3,0.2,-0.4,0.4c-0.2,0.1,-0.3,0.3,-0.4,0.4c0,0.2,-0.1,0.4,-0.1,0.6Zm0.8,1.5c-0.1,0.6,-0.3,1.1,-0.7,1.4c-0.4,0.3,-0.9,0.4,-1.5,0.4c-0.5,0,-0.9,0,-1.2,-0.2c-0.3,-0.1,-0.5,-0.3,-0.8,-0.6c-0.2,-0.2,-0.3,-0.5,-0.4,-0.9c-0.1,-0.3,-0.2,-0.7,-0.2,-1.1c0,-0.4,0,-0.8,0.2,-1.1c0.1,-0.3,0.3,-0.6,0.5,-0.9c0.2,-0.2,0.5,-0.4,0.8,-0.6c0.3,-0.1,0.6,-0.2,1,-0.2c0.5,0,0.9,0.1,1.2,0.3c0.3,0.2,0.5,0.5,0.7,0.8c0.2,0.3,0.4,0.6,0.4,1c0.1,0.3,0.1,0.7,0.1,1l-4,0c0,0.2,0,0.5,0.1,0.7c0.1,0.2,0.2,0.4,0.3,0.5c0.1,0.2,0.3,0.3,0.5,0.4c0.2,0.1,0.5,0.2,0.8,0.2c0.3,0,0.6,-0.1,0.9,-0.3c0.2,-0.2,0.4,-0.4,0.5,-0.8Z" class="g1_1" />
<path d="M152.4,68.5l0.8,0l0,1.1c0.3,-0.4,0.5,-0.8,0.8,-1c0.3,-0.2,0.7,-0.3,1.2,-0.3l0,1c-0.3,0,-0.6,0,-0.9,0.1c-0.2,0.1,-0.4,0.2,-0.6,0.4c-0.1,0.2,-0.2,0.4,-0.3,0.7c-0.1,0.3,-0.1,0.6,-0.1,0.9l0,2.4l-0.9,0Z" class="g1_1" />
<path d="M156.6,72.1c0,0.2,0.1,0.4,0.2,0.5c0,0.2,0.2,0.3,0.3,0.3c0.1,0.1,0.3,0.2,0.4,0.2c0.2,0,0.4,0.1,0.6,0.1c0.1,0,0.2,-0.1,0.4,-0.1c0.1,0,0.3,0,0.4,-0.1c0.1,0,0.2,-0.1,0.3,-0.2c0.1,-0.1,0.2,-0.3,0.2,-0.4c0,-0.2,-0.1,-0.4,-0.2,-0.5c-0.1,-0.1,-0.2,-0.2,-0.4,-0.2c-0.2,-0.1,-0.3,-0.1,-0.5,-0.2c-0.3,0,-0.5,-0.1,-0.7,-0.1c-0.2,-0.1,-0.4,-0.1,-0.6,-0.2c-0.2,-0.1,-0.4,-0.2,-0.6,-0.3c-0.2,-0.1,-0.3,-0.2,-0.4,-0.4c-0.1,-0.2,-0.1,-0.4,-0.1,-0.6c0,-0.3,0,-0.5,0.1,-0.7c0.2,-0.2,0.3,-0.4,0.5,-0.5c0.2,-0.1,0.4,-0.2,0.6,-0.3c0.3,0,0.5,-0.1,0.8,-0.1c0.3,0,0.5,0.1,0.8,0.1c0.2,0.1,0.5,0.2,0.7,0.3c0.2,0.1,0.3,0.3,0.4,0.5c0.2,0.2,0.2,0.5,0.2,0.8l-0.8,0c0,-0.2,-0.1,-0.3,-0.2,-0.4c-0.1,-0.1,-0.1,-0.2,-0.3,-0.3c-0.1,-0.1,-0.2,-0.1,-0.3,-0.1c-0.2,-0.1,-0.3,-0.1,-0.5,-0.1c-0.1,0,-0.2,0,-0.4,0c-0.1,0.1,-0.2,0.1,-0.3,0.2c-0.1,0,-0.2,0.1,-0.3,0.2c-0.1,0.1,-0.1,0.2,-0.1,0.3c0,0.2,0,0.3,0.2,0.4c0.1,0.1,0.2,0.2,0.4,0.2c0.1,0.1,0.3,0.2,0.5,0.2c0.2,0,0.4,0.1,0.6,0.1c0.3,0.1,0.5,0.1,0.7,0.2c0.2,0.1,0.4,0.2,0.5,0.3c0.2,0.1,0.3,0.2,0.4,0.4c0.1,0.2,0.2,0.4,0.2,0.7c0,0.3,-0.1,0.5,-0.2,0.8c-0.2,0.2,-0.3,0.3,-0.5,0.5c-0.3,0.1,-0.5,0.2,-0.8,0.3c-0.3,0,-0.5,0,-0.8,0c-0.3,0,-0.6,0,-0.8,-0.1c-0.3,0,-0.5,-0.1,-0.8,-0.3C156.2,73.4,156.1,73.2,156,73c-0.2,-0.3,-0.2,-0.5,-0.3,-0.9Z" class="g1_1" />
<path d="M161.5,68.5l0.9,0l0,5.3l-0.9,0l0,-5.3Zm0.9,-1l-0.9,0l0,-1.1l0.9,0l0,1.1Z" class="g1_1" />
<path d="M165.2,68.5l1.1,0l0,0.7l-1.1,0l0,3.4c0,0.1,0,0.1,0,0.2c0,0.1,0.1,0.1,0.1,0.1c0.1,0.1,0.1,0.1,0.2,0.1c0.1,0,0.2,0,0.4,0l0.4,0l0,0.8l-0.7,0c-0.2,0,-0.4,0,-0.6,0c-0.2,-0.1,-0.3,-0.1,-0.4,-0.2c-0.1,-0.1,-0.2,-0.2,-0.2,-0.4c-0.1,-0.1,-0.1,-0.3,-0.1,-0.6l0,-3.4l-0.9,0l0,-0.7l0.9,0l0,-1.6l0.9,0Z" class="g1_1" />
<path d="M169.5,74.5c-0.1,0.3,-0.2,0.5,-0.3,0.7c-0.1,0.2,-0.2,0.3,-0.3,0.4c-0.1,0.1,-0.2,0.2,-0.4,0.3c-0.2,0,-0.3,0.1,-0.5,0.1c-0.1,0,-0.2,-0.1,-0.3,-0.1c-0.1,0,-0.2,0,-0.3,0l0,-0.8c0.1,0,0.1,0,0.2,0c0.1,0.1,0.2,0.1,0.3,0.1c0.2,0,0.3,-0.1,0.4,-0.1c0.1,-0.1,0.2,-0.3,0.3,-0.4L169,73.8l-2.1,-5.3l0.9,0l1.6,4.3l1.5,-4.3l1,0Z" class="g1_1" />
<path d="M176.5,71.1c0,0.4,0.1,0.7,0.2,0.9c0.1,0.3,0.2,0.5,0.3,0.6c0.2,0.2,0.4,0.3,0.6,0.4c0.2,0.1,0.4,0.2,0.6,0.2c0.2,0,0.4,-0.1,0.7,-0.2c0.2,-0.1,0.3,-0.2,0.5,-0.4c0.1,-0.1,0.3,-0.3,0.3,-0.6c0.1,-0.2,0.2,-0.5,0.2,-0.9c0,-0.3,-0.1,-0.6,-0.2,-0.8c0,-0.3,-0.2,-0.5,-0.3,-0.7c-0.2,-0.1,-0.3,-0.3,-0.5,-0.4c-0.3,0,-0.5,-0.1,-0.7,-0.1c-0.2,0,-0.4,0.1,-0.6,0.1c-0.2,0.1,-0.4,0.3,-0.6,0.4c-0.1,0.2,-0.2,0.4,-0.3,0.7c-0.1,0.2,-0.2,0.5,-0.2,0.8m-0.9,0c0,-0.4,0.1,-0.7,0.2,-1.1c0.1,-0.3,0.2,-0.6,0.5,-0.9c0.2,-0.2,0.5,-0.4,0.8,-0.5c0.3,-0.2,0.7,-0.3,1.1,-0.3c0.4,0,0.8,0.1,1.1,0.3c0.3,0.1,0.6,0.3,0.8,0.5c0.3,0.3,0.4,0.6,0.5,0.9c0.1,0.4,0.2,0.7,0.2,1.1c0,0.4,-0.1,0.8,-0.2,1.1c-0.1,0.4,-0.2,0.7,-0.5,0.9c-0.2,0.3,-0.5,0.5,-0.8,0.6c-0.3,0.2,-0.7,0.2,-1.1,0.2c-0.4,0,-0.8,0,-1.1,-0.2c-0.3,-0.1,-0.6,-0.3,-0.8,-0.6c-0.3,-0.2,-0.4,-0.5,-0.5,-0.9c-0.1,-0.3,-0.2,-0.7,-0.2,-1.1Z" class="g1_1" />
<path d="M182.4,69.2l-0.9,0l0,-0.7l0.9,0l0,-0.8c0,-0.5,0.1,-0.8,0.4,-1c0.2,-0.2,0.6,-0.4,1.1,-0.4c0.1,0,0.2,0,0.3,0.1c0.1,0,0.2,0,0.3,0l0,0.8c-0.1,0,-0.2,-0.1,-0.3,-0.1c-0.1,0,-0.2,0,-0.2,0c-0.3,0,-0.4,0.1,-0.5,0.1c-0.2,0.1,-0.2,0.3,-0.2,0.5l0,0.8l1,0l0,0.7l-1,0l0,4.6l-0.9,0Z" class="g1_1" />
<path d="M189.6,68.5l1.1,0l0,0.7l-1.1,0l0,3.4c0,0.1,0,0.1,0,0.2c0.1,0.1,0.1,0.1,0.1,0.1c0.1,0.1,0.2,0.1,0.2,0.1c0.1,0,0.2,0,0.4,0l0.4,0l0,0.8l-0.7,0c-0.2,0,-0.4,0,-0.6,0c-0.1,-0.1,-0.3,-0.1,-0.4,-0.2c-0.1,-0.1,-0.1,-0.2,-0.2,-0.4c0,-0.1,-0.1,-0.3,-0.1,-0.6l0,-3.4l-0.9,0l0,-0.7l0.9,0l0,-1.6l0.9,0Z" class="g1_1" />
<path d="M191.9,66.4l0.8,0l0,2.8l0.1,0c0,-0.1,0.1,-0.3,0.3,-0.4c0.1,-0.1,0.2,-0.2,0.4,-0.3c0.1,0,0.3,-0.1,0.5,-0.1c0.1,0,0.3,-0.1,0.4,-0.1c0.4,0,0.7,0.1,0.9,0.2c0.3,0.1,0.5,0.2,0.6,0.4c0.1,0.2,0.2,0.4,0.3,0.6c0.1,0.2,0.1,0.5,0.1,0.8l0,3.5l-0.9,0l0,-3.6c0,-0.3,-0.1,-0.6,-0.3,-0.8c-0.2,-0.2,-0.4,-0.3,-0.8,-0.3c-0.2,0,-0.5,0.1,-0.7,0.1c-0.2,0.1,-0.3,0.2,-0.5,0.4c-0.1,0.1,-0.2,0.3,-0.3,0.5c0,0.2,-0.1,0.4,-0.1,0.7l0,3l-0.8,0Z" class="g1_1" />
<path d="M201.5,70.6c0,-0.2,0,-0.4,-0.1,-0.6c-0.1,-0.2,-0.2,-0.3,-0.3,-0.4c-0.2,-0.2,-0.3,-0.3,-0.5,-0.4c-0.2,0,-0.4,-0.1,-0.6,-0.1c-0.2,0,-0.4,0.1,-0.6,0.1c-0.2,0.1,-0.4,0.2,-0.5,0.4c-0.1,0.1,-0.2,0.3,-0.3,0.4c-0.1,0.2,-0.1,0.4,-0.1,0.6Zm0.9,1.5c-0.1,0.6,-0.4,1.1,-0.8,1.4c-0.4,0.3,-0.9,0.4,-1.5,0.4c-0.4,0,-0.8,0,-1.1,-0.2c-0.3,-0.1,-0.6,-0.3,-0.8,-0.6c-0.2,-0.2,-0.4,-0.5,-0.5,-0.9c-0.1,-0.3,-0.2,-0.7,-0.2,-1.1c0,-0.4,0.1,-0.8,0.2,-1.1c0.1,-0.3,0.3,-0.6,0.5,-0.9c0.3,-0.2,0.5,-0.4,0.8,-0.6c0.3,-0.1,0.7,-0.2,1,-0.2c0.5,0,0.9,0.1,1.2,0.3c0.3,0.2,0.6,0.5,0.8,0.8c0.2,0.3,0.3,0.6,0.4,1c0.1,0.3,0.1,0.7,0.1,1l-4,0c0,0.2,0,0.5,0,0.7c0.1,0.2,0.2,0.4,0.3,0.5c0.2,0.2,0.4,0.3,0.6,0.4c0.2,0.1,0.4,0.2,0.7,0.2c0.4,0,0.7,-0.1,0.9,-0.3c0.3,-0.2,0.4,-0.4,0.5,-0.8Z" class="g1_1" />
<path d="M208.1,70.8l2.5,0l-1.2,-3.5l-0.1,0Zm0.7,-4.4l1.1,0l2.9,7.4l-1.1,0l-0.8,-2.2l-3.1,0l-0.9,2.2l-1,0Z" class="g1_1" />
<path d="M213.5,68.5l0.9,0l0,1.1c0.2,-0.4,0.5,-0.8,0.8,-1c0.3,-0.2,0.7,-0.3,1.2,-0.3l0,1c-0.4,0,-0.7,0,-0.9,0.1c-0.3,0.1,-0.5,0.2,-0.6,0.4c-0.2,0.2,-0.3,0.4,-0.4,0.7c0,0.3,-0.1,0.6,-0.1,0.9l0,2.4l-0.9,0Z" class="g1_1" />
<path d="M218.5,68.5l1,0l0,0.7l-1,0l0,3.4c0,0.1,0,0.1,0,0.2c0,0.1,0,0.1,0.1,0.1c0,0.1,0.1,0.1,0.2,0.1c0.1,0,0.2,0,0.3,0l0.4,0l0,0.8l-0.7,0c-0.2,0,-0.4,0,-0.5,0c-0.2,-0.1,-0.3,-0.1,-0.4,-0.2c-0.1,-0.1,-0.2,-0.2,-0.3,-0.4c0,-0.1,0,-0.3,0,-0.6l0,-3.4l-0.9,0l0,-0.7l0.9,0l0,-1.6l0.9,0Z" class="g1_1" />
<path d="M221.2,72.1c0,0.2,0.1,0.4,0.2,0.5c0.1,0.2,0.2,0.3,0.3,0.3c0.1,0.1,0.3,0.2,0.5,0.2c0.1,0,0.3,0.1,0.5,0.1c0.1,0,0.3,-0.1,0.4,-0.1c0.2,0,0.3,0,0.4,-0.1c0.2,0,0.3,-0.1,0.3,-0.2c0.1,-0.1,0.2,-0.3,0.2,-0.4c0,-0.2,-0.1,-0.4,-0.2,-0.5c-0.1,-0.1,-0.2,-0.2,-0.4,-0.2c-0.1,-0.1,-0.3,-0.1,-0.5,-0.2c-0.2,0,-0.5,-0.1,-0.7,-0.1c-0.2,-0.1,-0.4,-0.1,-0.6,-0.2C221.4,71.1,221.2,71,221,70.9c-0.1,-0.1,-0.3,-0.2,-0.4,-0.4c-0.1,-0.2,-0.1,-0.4,-0.1,-0.6c0,-0.3,0,-0.5,0.1,-0.7c0.2,-0.2,0.3,-0.4,0.5,-0.5c0.2,-0.1,0.4,-0.2,0.7,-0.3c0.2,0,0.4,-0.1,0.7,-0.1c0.3,0,0.5,0.1,0.8,0.1c0.3,0.1,0.5,0.2,0.7,0.3c0.2,0.1,0.3,0.3,0.5,0.5c0.1,0.2,0.1,0.5,0.2,0.8l-0.9,0c0,-0.2,-0.1,-0.3,-0.2,-0.4c0,-0.1,-0.1,-0.2,-0.2,-0.3c-0.2,-0.1,-0.3,-0.1,-0.4,-0.1c-0.2,-0.1,-0.3,-0.1,-0.5,-0.1c-0.1,0,-0.2,0,-0.4,0c-0.1,0.1,-0.2,0.1,-0.3,0.2c-0.1,0,-0.2,0.1,-0.3,0.2c-0.1,0.1,-0.1,0.2,-0.1,0.3c0,0.2,0.1,0.3,0.2,0.4c0.1,0.1,0.2,0.2,0.4,0.2c0.1,0.1,0.3,0.2,0.5,0.2c0.2,0,0.4,0.1,0.6,0.1c0.3,0.1,0.5,0.1,0.7,0.2c0.2,0.1,0.4,0.2,0.6,0.3c0.1,0.1,0.2,0.2,0.3,0.4c0.1,0.2,0.2,0.4,0.2,0.7c0,0.3,-0.1,0.5,-0.2,0.8c-0.1,0.2,-0.3,0.3,-0.5,0.5c-0.2,0.1,-0.5,0.2,-0.8,0.3c-0.2,0,-0.5,0,-0.8,0c-0.3,0,-0.6,0,-0.8,-0.1c-0.3,0,-0.5,-0.1,-0.7,-0.3c-0.2,-0.1,-0.4,-0.3,-0.5,-0.5c-0.2,-0.3,-0.2,-0.5,-0.2,-0.9Z" class="g1_1" />

</svg>
